<svg width="128" height="37" xmlns="http://www.w3.org/2000/svg" xmlns:xlink="http://www.w3.org/1999/xlink" xml:space="preserve" overflow="hidden"><defs><clipPath id="clip0"><rect x="1099" y="314" width="128" height="37"/></clipPath></defs><g clip-path="url(#clip0)" transform="translate(-1099 -314)"><path d="M0 35.7693 7.23686 1.84164 27.0734 1.84164 24.9205 9.00069 14.4867 9.00069 13.2676 14.7007 21.7884 14.7007 20.3099 21.6068 11.8021 21.6068 10.33 28.526 22.0348 28.526 20.4655 35.7693Z" fill="#0072CE" transform="matrix(1.00096 0 0 1 1099 314.123)"/><path d="M29.0382 1.45256 37.8898 0C37.9935 1.21263 37.7017 3.79352 37.1505 6.27714L33.1365 24.914C32.2157 29.343 32.112 30.5167 34.0249 30.5167 34.3297 30.5167 34.6215 30.4713 34.9652 30.3741L35.1987 35.6331C33.9731 36.0676 31.8655 36.4113 29.5116 36.4113 22.3266 36.4113 22.9621 32.715 24.0256 27.7024L27.7024 10.557C28.9799 4.72082 29.0771 2.86621 29.0382 1.45256" fill="#0072CE" transform="matrix(1.00096 0 0 1 1099 314.123)"/><path d="M50.2365 16.3089C49.5946 16.3089 48.3884 16.2635 47.1563 17.6707 45.3471 19.7587 44.2707 24.6741 44.2707 27.7932 44.2707 29.4986 44.757 30.2249 45.9307 30.2249 46.9618 30.2249 48.7256 28.4676 48.9266 27.6505L51.2676 16.6461C50.9693 16.3997 50.5413 16.3089 50.2365 16.3089M59.3021 18.3969 57.3891 27.456C57.1881 28.2795 57.2464 30.0304 58.3813 31.2495L51.4686 36.7485C50.4376 36.2103 49.7113 34.7058 49.5557 33.772 48.4338 34.9457 45.9307 36.5475 43.0062 36.5475 37.8574 36.5475 35.7045 33.3376 35.7045 27.9812 35.7045 22.6249 37.8574 17.0741 41.1321 13.8188 44.0113 10.9461 47.1109 10.0188 51.5724 10.0188 55.0352 10.0188 59.354 10.6024 61.2021 11.5297 60.4758 13.2935 59.7365 16.3089 59.3021 18.3969" fill="#0072CE" transform="matrix(1.00096 0 0 1 1099 314.123)"/><path d="M78.4966 10.0253C84.8062 10.0253 85.4482 13.5788 84.6635 17.2297L80.6949 35.7758 72.1741 35.7758 75.6045 19.7198C76.0454 17.7679 75.8055 16.8925 74.3854 16.8925 73.0171 16.8925 71.9277 17.5734 70.8512 19.227L67.2847 35.7758 58.7639 35.7758 62.1488 19.9597C62.9335 16.1597 63.2123 13.916 62.8168 11.4389L70.3649 10.0253C70.5529 10.8488 70.7604 11.7372 70.8058 12.7553 72.7707 11.0498 75.7082 10.0253 78.4966 10.0253" fill="#0072CE" transform="matrix(1.00096 0 0 1 1099 314.123)"/><path d="M93.1454 36.4048C86.0772 36.4048 82.6598 31.9304 84.4755 23.4614 86.2782 14.9406 91.4724 10.0188 98.9103 10.0188 102.542 10.0188 104.507 10.9526 106.556 12.9887L101.556 18.0986C100.823 17.0806 99.5523 16.2505 98.3721 16.2505 96.4202 16.2505 94.9546 17.8068 93.8782 22.9297 92.8018 28.0331 92.886 30.1277 95.3308 30.1277 97.2567 30.1277 99.0075 29.2004 100.434 27.8905L102.983 32.8577C99.6949 35.5294 96.2256 36.4048 93.1454 36.4048" fill="#0072CE" transform="matrix(1.00096 0 0 1 1099 314.123)"/><path d="M111.964 28.1823C111.964 29.7386 112.502 30.4649 113.87 30.4649 117.404 30.4649 118.87 19.9079 118.87 18.2024 118.87 16.4969 118.235 15.9198 116.957 15.9198 113.429 15.9133 111.964 26.4249 111.964 28.1823M127.877 18.9352C127.877 25.5041 124.207 36.4048 112.398 36.4048 106.426 36.4048 103.06 33.143 103.06 27.3522 103.06 20.8741 106.582 10.0317 118.539 10.0317 123.798 10.0317 127.877 12.5997 127.877 18.9352" fill="#0072CE" transform="matrix(1.00096 0 0 1 1099 314.123)"/></g></svg>