<svg width="195" height="96" xmlns="http://www.w3.org/2000/svg" xmlns:xlink="http://www.w3.org/1999/xlink" xml:space="preserve" overflow="hidden"><g transform="translate(-44 -281)"><path d="M194.595 0 0 33.9568 11.1827 95.9676 194.595 63.6973Z" fill="#0072CE" transform="matrix(1.00208 0 0 1 44 281.016)"/><path d="M12.0584 69.7232 19.2908 35.7859 39.1395 35.7859 36.9795 42.947 26.5492 42.947 25.3232 48.6486 33.853 48.6486 32.3741 55.5568 23.8573 55.5568 22.3849 62.4778 34.0995 62.4778 32.5297 69.7232Z" fill="#FFFFFF" transform="matrix(1.00208 0 0 1 44 281.016)"/><path d="M41.0984 35.3968 49.9589 33.9438C50.0627 35.1568 49.7708 37.7384 49.2195 40.2227L45.2043 58.8649C44.2832 63.2951 44.1795 64.4692 46.093 64.4692 46.3978 64.4692 46.6897 64.4238 47.0335 64.3265L47.2735 69.587C46.0476 70.0216 43.9395 70.3654 41.5849 70.3654 34.3913 70.3654 35.0335 66.6681 36.0973 61.6541L39.7751 44.5038C41.0465 38.6595 41.1438 36.8108 41.0984 35.3968" fill="#FFFFFF" transform="matrix(1.00208 0 0 1 44 281.016)"/><path d="M62.3092 50.2573C61.667 50.2573 60.4605 50.2119 59.2281 51.6195 57.4184 53.7081 56.3416 58.6249 56.3416 61.7449 56.3416 63.4508 56.8281 64.1773 58.0022 64.1773 59.0335 64.1773 60.7978 62.4195 60.9989 61.6022L63.3405 50.5946C63.0422 50.3481 62.6141 50.2573 62.3092 50.2573M71.3708 52.3459 69.4638 61.4076C69.2627 62.2313 69.3211 63.9827 70.4562 65.2022L63.5416 70.7027C62.5103 70.1643 61.7838 68.6595 61.6216 67.7254 60.4995 68.8995 57.9957 70.5016 55.0703 70.5016 49.92 70.5016 47.7665 67.2908 47.7665 61.933 47.7665 56.5751 49.92 51.0227 53.1957 47.7665 56.0757 44.893 59.1762 43.9589 63.6389 43.9589 67.1027 43.9589 71.4227 44.5427 73.2778 45.4703 72.5513 47.2411 71.8119 50.2573 71.3708 52.3459" fill="#FFFFFF" transform="matrix(1.00208 0 0 1 44 281.016)"/><path d="M90.5773 43.9719C96.8886 43.9719 97.5308 47.5265 96.7459 51.1784L92.7762 69.7297 84.253 69.7297 87.6843 53.6627C88.1254 51.7103 87.8854 50.8346 86.4649 50.8346 85.0962 50.8346 84.0065 51.5157 82.9297 53.1697L79.3622 69.7232 70.8389 69.7232 74.2313 53.9027C75.0162 50.1016 75.2951 47.8573 74.8995 45.3795L82.4497 43.9654C82.6378 44.7892 82.8389 45.6778 82.8908 46.6962 84.8497 44.9903 87.7816 43.9719 90.5773 43.9719" fill="#FFFFFF" transform="matrix(1.00208 0 0 1 44 281.016)"/><path d="M105.23 70.3589C98.16 70.3589 94.7416 65.8832 96.5578 57.4119 98.3611 48.8886 103.557 43.9654 110.997 43.9654 114.629 43.9654 116.595 44.8995 118.644 46.9362L113.643 52.0476C112.91 51.0292 111.639 50.1989 110.458 50.1989 108.506 50.1989 107.04 51.7557 105.963 56.88 104.886 61.9849 104.971 64.08 107.416 64.08 109.336 64.08 111.094 63.1524 112.521 61.8422L115.07 66.8108C111.782 69.4832 108.311 70.3589 105.23 70.3589" fill="#FFFFFF" transform="matrix(1.00208 0 0 1 44 281.016)"/><path d="M124.048 62.1341C124.048 63.6908 124.592 64.4173 125.955 64.4173 129.49 64.4173 130.956 53.8573 130.956 52.1513 130.956 50.4454 130.32 49.8681 129.042 49.8681 125.52 49.8616 124.048 60.3762 124.048 62.1341M139.965 52.8843C139.965 59.4551 136.294 70.3589 124.482 70.3589 118.508 70.3589 115.142 67.0962 115.142 61.3038 115.142 54.8238 118.664 43.9784 130.625 43.9784 135.892 43.9784 139.965 46.547 139.965 52.8843" fill="#FFFFFF" transform="matrix(1.00208 0 0 1 44 281.016)"/><path d="M184.437 71.0465 182.381 71.0465 182.381 70.3589 187.317 70.3589 187.317 71.0465 185.261 71.0465 185.261 76.4951 184.437 76.4951Z" transform="matrix(1.00208 0 0 1 44 281.016)"/><path d="M188.024 70.3589 189.146 70.3589 191.092 75.5157 193.044 70.3589 194.166 70.3589 194.166 76.4951 193.388 76.4951 193.388 71.3903 193.375 71.3903 191.442 76.4951 190.748 76.4951 188.815 71.3903 188.802 71.3903 188.802 76.4951 188.024 76.4951Z" transform="matrix(1.00208 0 0 1 44 281.016)"/></g></svg>